<svg id="Layer_1" data-name="Layer 1" xmlns="http://www.w3.org/2000/svg" viewBox="0 0 300 300"><defs><style>.cls-1{fill:none;stroke:#000;stroke-miterlimit:10;stroke-width:8px;}</style></defs><title>playerIcon</title><path class="cls-1" d="M269.22,30.78A204.85,204.85,0,0,1,30.78,269.22,204.83,204.83,0,0,1,269.22,30.78Z"/><line class="cls-1" x1="32" y1="188.3" x2="111.7" y2="267.99"/><line class="cls-1" x1="39.71" y1="162.22" x2="137.78" y2="260.28"/><line class="cls-1" x1="188.31" y1="32" x2="268" y2="111.69"/><line class="cls-1" x1="162.23" y1="39.71" x2="260.29" y2="137.77"/><line class="cls-1" x1="150" y1="150" x2="107.81" y2="192.18"/><line class="cls-1" x1="100.26" y1="175.74" x2="124.26" y2="199.74"/><line class="cls-1" x1="138" y1="137.99" x2="162" y2="162"/><line class="cls-1" x1="125.42" y1="150.57" x2="149.42" y2="174.58"/><line class="cls-1" x1="112.84" y1="163.16" x2="136.84" y2="187.16"/><line class="cls-1" x1="150.01" y1="149.99" x2="192.19" y2="107.81"/><line class="cls-1" x1="175.74" y1="100.25" x2="199.75" y2="124.25"/><line class="cls-1" x1="150.58" y1="125.41" x2="174.58" y2="149.42"/><line class="cls-1" x1="163.16" y1="112.83" x2="187.17" y2="136.83"/></svg>