<svg id="Layer_1" data-name="Layer 1" xmlns="http://www.w3.org/2000/svg" viewBox="0 0 48.92 48.92"><defs><style>.cls-1{fill:#6cae75;}.cls-2{fill:none;stroke:#6cae75;stroke-miterlimit:10;stroke-width:0.55px;}</style></defs><title>Artboard 22</title><path class="cls-1" d="M24.46,48.64A24,24,0,0,1,10.24,44a24.18,24.18,0,0,1-.22-39L24.74,25.31V.28A24,24,0,0,1,38.67,4.89,24.29,24.29,0,0,1,47.46,17a24.14,24.14,0,0,1,0,14.95A24.28,24.28,0,0,1,38.67,44,24,24,0,0,1,24.46,48.64Z"/><path class="cls-1" d="M25,.56A23.71,23.71,0,0,1,38.51,5.12a24,24,0,0,1,8.69,12,23.86,23.86,0,0,1,0,14.78,24,24,0,0,1-8.69,12,23.91,23.91,0,0,1-28.1,0A23.9,23.9,0,0,1,10,5.45L24,24.78l1,1.37V.56M24.46,0V24.46L10.08,4.67A24.46,24.46,0,1,0,47.72,32,24.46,24.46,0,0,0,24.46,0Z"/><line class="cls-2" x1="24.46" y1="24.46" x2="24.46"/><line class="cls-2" x1="24.46" y1="24.46" x2="10.08" y2="4.67"/><line class="cls-2" x1="24.46" y1="24.46" x2="1.19" y2="16.9"/><line class="cls-2" x1="24.46" y1="24.46" x2="1.19" y2="32.02"/><line class="cls-2" x1="24.46" y1="24.46" x2="10.08" y2="44.25"/><line class="cls-2" x1="24.46" y1="24.46" x2="24.46" y2="48.92"/><line class="cls-2" x1="24.46" y1="24.46" x2="38.83" y2="44.25"/><line class="cls-2" x1="24.46" y1="24.46" x2="47.72" y2="32.02"/><line class="cls-2" x1="24.46" y1="24.46" x2="47.72" y2="16.9"/><line class="cls-2" x1="24.46" y1="24.46" x2="38.83" y2="4.67"/></svg>