<svg id="Layer_1" data-name="Layer 1" xmlns="http://www.w3.org/2000/svg" viewBox="0 0 50 50"><defs><style>.cls-1{fill:#e5d352;}.cls-2{fill:none;stroke:#e5d352;stroke-miterlimit:10;stroke-width:0.55px;}</style></defs><title>waterLevel7</title><path class="cls-1" d="M25,49.18a24,24,0,0,1-14.22-4.62A24.28,24.28,0,0,1,2.09,32.73L25.28,25.2V.82A24,24,0,0,1,39.22,5.43,24.27,24.27,0,0,1,48,17.52a24.13,24.13,0,0,1,0,14.95,24.27,24.27,0,0,1-8.78,12.09A24,24,0,0,1,25,49.18Z"/><path class="cls-1" d="M25.55,1.1a23.72,23.72,0,0,1,13.5,4.56,24,24,0,0,1,8.68,12,23.86,23.86,0,0,1,0,14.78,24,24,0,0,1-8.68,12,23.92,23.92,0,0,1-28.11,0,24,24,0,0,1-8.5-11.43l22.73-7.39.38-.12V1.1M25,.54V25L1.74,32.56a24.45,24.45,0,0,0,46.52,0A24.45,24.45,0,0,0,25,.54Z"/><line class="cls-2" x1="25" y1="25" x2="25" y2="0.54"/><line class="cls-2" x1="25" y1="25" x2="10.62" y2="44.79"/><line class="cls-2" x1="25" y1="25" x2="25" y2="49.46"/><line class="cls-2" x1="25" y1="25" x2="39.38" y2="44.79"/><line class="cls-2" x1="25" y1="25" x2="48.26" y2="32.56"/><line class="cls-2" x1="25" y1="25" x2="48.26" y2="17.44"/><line class="cls-2" x1="25" y1="25" x2="39.38" y2="5.21"/></svg>