<svg id="Layer_1" data-name="Layer 1" xmlns="http://www.w3.org/2000/svg" viewBox="0 0 50 50"><defs><style>.cls-1{fill:#e5d352;}.cls-2{fill:none;stroke:#e5d352;stroke-miterlimit:10;stroke-width:0.55px;}</style></defs><title>waterLevel6</title><path class="cls-1" d="M25,49.18a24,24,0,0,1-14-4.46L25.28,25.09V.82A24,24,0,0,1,39.21,5.43,24.28,24.28,0,0,1,48,17.52a24.13,24.13,0,0,1,0,14.95,24.28,24.28,0,0,1-8.79,12.09A24,24,0,0,1,25,49.18Z"/><path class="cls-1" d="M25.56,1.1A23.71,23.71,0,0,1,39,5.65a24,24,0,0,1,8.69,12,23.86,23.86,0,0,1,0,14.78,24,24,0,0,1-8.69,12,23.91,23.91,0,0,1-27.65.32L25.45,25.32l.11-.15V1.1M25,.54V25L10.62,44.79A24.46,24.46,0,0,0,48.26,32.56,24.46,24.46,0,0,0,25,.54Z"/><line class="cls-2" x1="25" y1="25" x2="25" y2="0.54"/><line class="cls-2" x1="25" y1="25" x2="10.62" y2="44.79"/><line class="cls-2" x1="25" y1="25" x2="25" y2="49.46"/><line class="cls-2" x1="25" y1="25" x2="39.38" y2="44.79"/><line class="cls-2" x1="25" y1="25" x2="48.26" y2="32.56"/><line class="cls-2" x1="25" y1="25" x2="48.26" y2="17.44"/><line class="cls-2" x1="25" y1="25" x2="39.38" y2="5.21"/></svg>