<svg id="Layer_1" data-name="Layer 1" xmlns="http://www.w3.org/2000/svg" viewBox="0 0 50 50"><defs><style>.cls-1{fill:#ac3931;}.cls-2{fill:none;stroke:#ac3931;stroke-miterlimit:10;stroke-width:0.55px;}</style></defs><title>waterLevel3</title><path class="cls-1" d="M25.28,24.8V.82A23.93,23.93,0,0,1,39.21,5.43,24.28,24.28,0,0,1,48,17.52a24.15,24.15,0,0,1,.08,14.69Z"/><path class="cls-1" d="M25.55,1.1A23.65,23.65,0,0,1,39,5.65a24,24,0,0,1,8.69,12,23.87,23.87,0,0,1,.17,14.25L25.55,24.6V1.1M25,.54V25l23.26,7.56A24.46,24.46,0,0,0,25,.54Z"/><line class="cls-2" x1="25" y1="25" x2="25" y2="0.54"/><line class="cls-2" x1="48.26" y1="32.56" x2="25" y2="25"/><line class="cls-2" x1="25" y1="25" x2="48.26" y2="17.44"/><line class="cls-2" x1="25" y1="25" x2="39.38" y2="5.21"/></svg>