<svg id="Layer_1" data-name="Layer 1" xmlns="http://www.w3.org/2000/svg" viewBox="0 0 50 50"><defs><style>.cls-1{fill:#6cae75;}.cls-2{fill:none;stroke:#6cae75;stroke-miterlimit:10;stroke-width:0.55px;}</style></defs><title>waterLevel10</title><path class="cls-1" d="M25,49.18A24.18,24.18,0,1,1,49.18,25,24.21,24.21,0,0,1,25,49.18Z"/><path class="cls-1" d="M25,1.09A23.91,23.91,0,1,1,1.09,25,23.93,23.93,0,0,1,25,1.09m0-.55A24.46,24.46,0,1,0,49.46,25,24.46,24.46,0,0,0,25,.54Z"/><line class="cls-2" x1="25" y1="25" x2="25" y2="0.54"/><line class="cls-2" x1="25" y1="25" x2="10.62" y2="5.21"/><line class="cls-2" x1="25" y1="25" x2="1.74" y2="17.44"/><line class="cls-2" x1="25" y1="25" x2="1.74" y2="32.56"/><line class="cls-2" x1="25" y1="25" x2="10.62" y2="44.79"/><line class="cls-2" x1="25" y1="25" x2="25" y2="49.46"/><line class="cls-2" x1="25" y1="25" x2="39.38" y2="44.79"/><line class="cls-2" x1="25" y1="25" x2="48.26" y2="32.56"/><line class="cls-2" x1="25" y1="25" x2="48.26" y2="17.44"/><line class="cls-2" x1="25" y1="25" x2="39.38" y2="5.21"/></svg>