<svg id="Layer_1" data-name="Layer 1" xmlns="http://www.w3.org/2000/svg" viewBox="0 0 50 50"><defs><style>.cls-1{fill:#ac3931;}.cls-2{fill:none;stroke:#ac3931;stroke-miterlimit:10;stroke-width:0.55px;}</style></defs><title>waterLevel2</title><path class="cls-1" d="M25.28.82A23.93,23.93,0,0,1,39.21,5.43a24.3,24.3,0,0,1,8.71,11.83L25.28,24.62Z"/><path class="cls-1" d="M25.56,1.1A23.65,23.65,0,0,1,39,5.65a24,24,0,0,1,8.51,11.43l-22,7.15V1.1M25,.54V25l23.26-7.56A24.47,24.47,0,0,0,25,.54Z"/><line class="cls-2" x1="25" y1="25" x2="25" y2="0.54"/><line class="cls-2" x1="48.26" y1="17.44" x2="25" y2="25"/><line class="cls-2" x1="25" y1="25" x2="39.38" y2="5.21"/></svg>