<svg id="Layer_1" data-name="Layer 1" xmlns="http://www.w3.org/2000/svg" viewBox="0 0 50 50"><defs><style>.cls-1{fill:#6cae75;}.cls-2{fill:none;stroke:#6cae75;stroke-miterlimit:10;stroke-width:0.55px;}</style></defs><title>waterLevel8</title><path class="cls-1" d="M25,49.18a24,24,0,0,1-14.22-4.62A24.22,24.22,0,0,1,1.91,17.79l23.37,7.59V.82A23.94,23.94,0,0,1,39.21,5.43,24.29,24.29,0,0,1,48,17.52a24.14,24.14,0,0,1,0,14.95,24.28,24.28,0,0,1-8.79,12.09A24,24,0,0,1,25,49.18Z"/><path class="cls-1" d="M25.56,1.1A23.65,23.65,0,0,1,39,5.65a24,24,0,0,1,8.69,12,23.86,23.86,0,0,1,0,14.78,24,24,0,0,1-8.69,12,23.91,23.91,0,0,1-28.1,0A23.95,23.95,0,0,1,2.09,18.14l22.74,7.39.72.23V1.1M25,.54V25L1.73,17.44A24.46,24.46,0,0,0,48.26,32.56,24.46,24.46,0,0,0,25,.54Z"/><line class="cls-2" x1="25" y1="25" x2="25" y2="0.54"/><line class="cls-2" x1="25" y1="25" x2="1.73" y2="17.44"/><line class="cls-2" x1="25" y1="25" x2="1.74" y2="32.56"/><line class="cls-2" x1="25" y1="25" x2="10.62" y2="44.79"/><line class="cls-2" x1="25" y1="25" x2="25" y2="49.46"/><line class="cls-2" x1="25" y1="25" x2="39.38" y2="44.79"/><line class="cls-2" x1="25" y1="25" x2="48.26" y2="32.56"/><line class="cls-2" x1="25" y1="25" x2="48.26" y2="17.44"/><line class="cls-2" x1="25" y1="25" x2="39.38" y2="5.21"/></svg>