<svg id="Layer_1" data-name="Layer 1" xmlns="http://www.w3.org/2000/svg" viewBox="0 0 50 50"><defs><style>.cls-1{fill:#ac3931;}.cls-2{fill:none;stroke:#ac3931;stroke-miterlimit:10;stroke-width:0.55px;}</style></defs><title>waterLevel4</title><path class="cls-1" d="M25.27,24.91V.82A24,24,0,0,1,39.22,5.43,24.28,24.28,0,0,1,48,17.52a24.15,24.15,0,0,1,0,14.95A24.28,24.28,0,0,1,39.44,44.4Z"/><path class="cls-1" d="M25.55,1.1a23.72,23.72,0,0,1,13.5,4.56,24,24,0,0,1,8.68,12,23.86,23.86,0,0,1,0,14.78A24,24,0,0,1,39.5,44L25.55,24.82V1.1M25,.54V25L39.38,44.79A24.46,24.46,0,0,0,25,.54Z"/><line class="cls-2" x1="25" y1="25" x2="25" y2="0.54"/><line class="cls-2" x1="39.38" y1="44.79" x2="25" y2="25"/><line class="cls-2" x1="25" y1="25" x2="48.26" y2="32.56"/><line class="cls-2" x1="25" y1="25" x2="48.26" y2="17.44"/><line class="cls-2" x1="25" y1="25" x2="39.38" y2="5.21"/></svg>