<svg id="Layer_1" data-name="Layer 1" xmlns="http://www.w3.org/2000/svg" viewBox="0 0 300 300"><defs><style>.cls-1{fill:none;stroke:#000;stroke-miterlimit:10;stroke-width:7.58px;}</style></defs><title>coachIcon</title><path class="cls-1" d="M135.48,40a5.92,5.92,0,0,0,5.86,5.24h16.43A5.92,5.92,0,0,0,163.63,40"/><path class="cls-1" d="M200.54,55.19V40H231a5.91,5.91,0,0,1,5.9,5.9V277.07A5.91,5.91,0,0,1,231,283H69a5.91,5.91,0,0,1-5.9-5.9V45.9A5.91,5.91,0,0,1,69,40H98.57V55.19"/><path class="cls-1" d="M200.54,55.19H220.7a5.91,5.91,0,0,1,5.9,5.9V261.89a5.91,5.91,0,0,1-5.9,5.9H79.3a5.91,5.91,0,0,1-5.9-5.9V61.08a5.91,5.91,0,0,1,5.9-5.9H98.57"/><path class="cls-1" d="M163.67,31.14h31a5.91,5.91,0,0,1,5.9,5.9v3"/><path class="cls-1" d="M98.57,40V37a5.91,5.91,0,0,1,5.9-5.9h31"/><path class="cls-1" d="M135.48,40a5.92,5.92,0,0,0,5.86,5.24h16.43A5.92,5.92,0,0,0,163.63,40"/><path class="cls-1" d="M200.54,55.19v5.53a5.91,5.91,0,0,1-5.9,5.9H104.47a5.91,5.91,0,0,1-5.9-5.9V55.19"/><path class="cls-1" d="M163.67,22.93V39.36c0,.22,0,.44,0,.65a5.92,5.92,0,0,1-5.86,5.24H141.35A5.92,5.92,0,0,1,135.48,40c0-.21,0-.43,0-.65V22.93a5.91,5.91,0,0,1,5.9-5.9h16.43A5.91,5.91,0,0,1,163.67,22.93Z"/><line class="cls-1" x1="98.72" y1="87.53" x2="200.69" y2="87.53"/><line class="cls-1" x1="98.72" y1="107.18" x2="200.69" y2="107.18"/><line class="cls-1" x1="98.72" y1="126.83" x2="200.69" y2="126.83"/><line class="cls-1" x1="98.72" y1="146.48" x2="200.69" y2="146.48"/><line class="cls-1" x1="98.72" y1="166.13" x2="200.69" y2="166.13"/><line class="cls-1" x1="98.72" y1="185.78" x2="200.69" y2="185.78"/><line class="cls-1" x1="98.72" y1="205.42" x2="200.69" y2="205.42"/><line class="cls-1" x1="98.72" y1="225.07" x2="200.69" y2="225.07"/><line class="cls-1" x1="98.72" y1="244.72" x2="200.69" y2="244.72"/></svg>