<svg id="Layer_1" data-name="Layer 1" xmlns="http://www.w3.org/2000/svg" viewBox="0 0 750 250"><defs><style>.cls-1{fill:#fff;}.cls-1,.cls-2{stroke:#000;}.cls-1,.cls-2,.cls-3{stroke-miterlimit:10;}.cls-2{fill:none;}.cls-3{fill:#00cfff;stroke:#00cfff;}</style></defs><title>Artboard 1</title><circle class="cls-1" cx="102.44" cy="113.32" r="44.31"/><line class="cls-2" x1="102.44" y1="113.32" x2="102.44" y2="69.01"/><line class="cls-2" x1="102.44" y1="113.32" x2="76.39" y2="77.47"/><line class="cls-2" x1="102.44" y1="113.32" x2="60.3" y2="99.62"/><line class="cls-2" x1="102.44" y1="113.32" x2="60.3" y2="127.01"/><line class="cls-2" x1="102.44" y1="113.32" x2="76.39" y2="149.16"/><line class="cls-2" x1="102.44" y1="113.32" x2="102.44" y2="157.63"/><line class="cls-2" x1="102.44" y1="113.32" x2="128.48" y2="149.16"/><line class="cls-2" x1="102.44" y1="113.32" x2="144.58" y2="127.01"/><line class="cls-2" x1="102.44" y1="113.32" x2="144.58" y2="99.62"/><line class="cls-2" x1="102.44" y1="113.32" x2="128.48" y2="77.47"/><circle class="cls-3" cx="211.52" cy="160.64" r="44.31"/><line class="cls-3" x1="211.52" y1="160.64" x2="211.52" y2="116.33"/><line class="cls-3" x1="211.52" y1="160.64" x2="185.48" y2="124.79"/><line class="cls-3" x1="211.52" y1="160.64" x2="169.38" y2="146.95"/><line class="cls-3" x1="211.52" y1="160.64" x2="169.38" y2="174.33"/><line class="cls-3" x1="211.52" y1="160.64" x2="185.48" y2="196.49"/><line class="cls-3" x1="211.52" y1="160.64" x2="211.52" y2="204.95"/><line class="cls-3" x1="211.52" y1="160.64" x2="237.57" y2="196.49"/><line class="cls-3" x1="211.52" y1="160.64" x2="253.66" y2="174.33"/><line class="cls-3" x1="211.52" y1="160.64" x2="253.66" y2="146.95"/><line class="cls-3" x1="211.52" y1="160.64" x2="237.57" y2="124.79"/></svg>