<svg id="Layer_1" data-name="Layer 1" xmlns="http://www.w3.org/2000/svg" viewBox="0 0 363 178"><defs><style>.cls-1{fill:#68d677;stroke:#68d677;}.cls-1,.cls-2,.cls-3,.cls-4,.cls-5{stroke-miterlimit:10;}.cls-2,.cls-3,.cls-4{fill:none;}.cls-2,.cls-3,.cls-4,.cls-5{stroke:#fff;}.cls-2{stroke-linecap:square;stroke-width:2px;}.cls-3{stroke-dasharray:12;}.cls-5{fill:#fff;stroke-width:3px;stroke-dasharray:36;}</style></defs><title>graph</title><rect class="cls-1" x="11" y="11" width="341" height="156"/><line class="cls-2" x1="24" y1="26" x2="24" y2="154"/><line class="cls-2" x1="330" y1="154" x2="24" y2="154"/><line class="cls-3" x1="23.5" y1="68.67" x2="326.5" y2="68.67"/><line class="cls-3" x1="23.5" y1="111.33" x2="326.5" y2="111.33"/><line class="cls-4" x1="54.6" y1="154" x2="54.6" y2="147"/><line class="cls-4" x1="85.2" y1="153.5" x2="85.2" y2="147"/><line class="cls-4" x1="207.6" y1="153.5" x2="207.6" y2="147"/><line class="cls-4" x1="115.8" y1="153.5" x2="115.8" y2="147"/><line class="cls-4" x1="146.4" y1="153.5" x2="146.4" y2="147"/><line class="cls-4" x1="177" y1="154" x2="177" y2="147"/><line class="cls-4" x1="238.2" y1="153.5" x2="238.2" y2="147"/><line class="cls-4" x1="268.8" y1="153.5" x2="268.8" y2="147"/><line class="cls-4" x1="299.4" y1="153.5" x2="299.4" y2="147"/><circle class="cls-5" cx="55" cy="127" r="3"/><circle class="cls-5" cx="85" cy="111" r="3"/><circle class="cls-5" cx="116" cy="64" r="3"/><circle class="cls-5" cx="146" cy="87" r="3"/><circle class="cls-5" cx="177" cy="96" r="3"/><circle class="cls-5" cx="208" cy="84" r="3"/><circle class="cls-5" cx="238" cy="121" r="3"/><circle class="cls-5" cx="269" cy="111" r="3"/><circle class="cls-5" cx="299" cy="90" r="3"/><line class="cls-4" x1="55" y1="127" x2="85" y2="111"/><line class="cls-4" x1="146" y1="87" x2="116" y2="64"/><line class="cls-4" x1="85" y1="111" x2="116" y2="64"/><line class="cls-4" x1="146" y1="88" x2="177" y2="96"/><line class="cls-4" x1="208" y1="84" x2="177" y2="96"/><line class="cls-4" x1="238" y1="121" x2="208" y2="84"/><line class="cls-4" x1="299" y1="90" x2="269" y2="111"/><line class="cls-4" x1="238" y1="121" x2="269" y2="111"/></svg>